HIERARCHY
ROOT WRIST
{
	OFFSET 0.000000 0.000000 0.000000
	CHANNELS 6 Xposition Yposition Zposition Yrotation Xrotation Zrotation
	JOINT THUMB_CMC_FE
	{
		OFFSET -0.225143 0.117753 -0.062308
		CHANNELS 3 Yrotation Xrotation Zrotation
		JOINT THUMB_CMC_AA
		{
			OFFSET -0.212856 -0.150507 0.098851
			CHANNELS 3 Yrotation Xrotation Zrotation
			JOINT THUMB_MCP_FE
			{
				OFFSET 0.322503 -0.167445 -0.031436
				CHANNELS 3 Yrotation Xrotation Zrotation
				JOINT THUMB_IP_FE
				{
					OFFSET -0.295233 -0.236404 0.025845
					CHANNELS 3 Yrotation Xrotation Zrotation
					End Site
					{
						OFFSET 0.000000 0.000000 0.000000
					}
				}
			}
		}
	}
	JOINT INDEX_MCP
	{
		OFFSET -1.076913 0.264198 -0.014768
		CHANNELS 3 Yrotation Xrotation Zrotation
		JOINT INDEX_PIP_FE
		{
			OFFSET -0.425053 0.013289 0.013619
			CHANNELS 3 Yrotation Xrotation Zrotation
			JOINT INDEX_DIP_FE
			{
				OFFSET -0.271505 -0.024898 0.000550
				CHANNELS 3 Yrotation Xrotation Zrotation
				End Site
				{
					OFFSET 0.000000 0.000000 0.000000
				}
			}
		}
	}
	JOINT MIDDLE_MCP
	{
		OFFSET -1.072991 0.019362 0.038780
		CHANNELS 3 Yrotation Xrotation Zrotation
		JOINT MIDDLE_PIP_FE
		{
			OFFSET -0.480704 0.002618 0.028696
			CHANNELS 3 Yrotation Xrotation Zrotation
			JOINT MIDDLE_DIP_FE
			{
				OFFSET -0.307486 -0.031129 -0.000643
				CHANNELS 3 Yrotation Xrotation Zrotation
				End Site
				{
					OFFSET 0.000000 0.000000 0.000000
				}
			}
		}
	}
	JOINT RING_MCP
	{
		OFFSET -0.994992 -0.195930 -0.005938
		CHANNELS 3 Yrotation Xrotation Zrotation
		JOINT RING_PIP_FE
		{
			OFFSET -0.436995 0.003792 0.019994
			CHANNELS 3 Yrotation Xrotation Zrotation
			JOINT RING_DIP_FE
			{
				OFFSET -0.295558 -0.038341 -0.006642
				CHANNELS 3 Yrotation Xrotation Zrotation
				End Site
				{
					OFFSET 0.000000 0.000000 0.000000
				}
			}
		}
	}
	JOINT PINKY_MCP
	{
		OFFSET -0.873858 -0.393246 -0.086282
		CHANNELS 3 Yrotation Xrotation Zrotation
		JOINT PINKY_PIP_FE
		{
			OFFSET -0.343972 -0.016492 0.013445
			CHANNELS 3 Yrotation Xrotation Zrotation
			JOINT PINKY_DIP_FE
			{
				OFFSET -0.224713 -0.036309 -0.010265
				CHANNELS 3 Yrotation Xrotation Zrotation
				End Site
				{
					OFFSET 0.000000 0.000000 0.000000
				}
			}
		}
	}
}
MOTION
Frames: 10
Frame Time: 0.008333334
-1.983321 5.248068 5.928203 -112.898400 -16.118650 70.770540 -61.461180 4.834466 -56.780360 -119.352900 -30.976900 -1.416321 112.864000 -65.843260 40.418640 -4.562103 -8.459839 15.568450 167.564900 3.323087 168.103100 41.978350 -86.125670 -3.633209 2.052619 1.705008 17.281060 165.616900 -2.146362 162.268300 39.241000 -88.411070 6.023100 6.002519 4.395446 3.507049 171.288600 -7.622253 160.682700 31.479600 -85.617800 12.047410 -0.199310 0.562928 11.369130 179.371000 -13.444270 159.501700 48.977810 -83.530610 0.541355 -5.539795 0.809174 30.053280 
-1.984331 5.248065 5.928215 -112.780600 -16.064640 70.756450 -61.461180 4.834460 -56.650820 -119.352900 -30.976960 -1.447723 112.863900 -65.843260 40.384180 -4.562073 -8.459839 15.728780 167.458200 3.321283 167.955300 41.978290 -86.125550 -3.902954 2.052625 1.705006 17.646760 165.898200 -2.120422 162.138800 39.240540 -88.411190 6.563673 6.002525 4.395440 3.002293 171.290100 -7.621918 160.681500 31.479890 -85.617830 12.046810 -0.199310 0.562929 11.369120 179.369300 -13.444820 159.502300 48.977690 -83.530580 0.541826 -5.539795 0.809177 30.053310 
-1.985941 5.248496 5.927653 -112.706300 -15.935940 70.798070 -61.461180 4.834463 -56.527400 -119.352900 -30.976930 -1.372040 112.863900 -65.843260 40.250400 -4.562103 -8.459839 15.768380 167.590000 3.323504 167.925500 41.978280 -86.125550 -3.842316 2.052626 1.704989 17.626870 166.097700 -2.101990 162.095400 39.241370 -88.411440 6.848629 6.002527 4.395430 2.464685 171.288600 -7.622253 160.678300 31.479970 -85.617800 12.047230 -0.199310 0.562927 11.369130 179.368900 -13.444950 159.505000 48.977600 -83.530670 0.542068 -5.539795 0.809180 30.053350 
-1.986762 5.248897 5.927414 -112.649300 -15.856510 70.829680 -61.461180 4.834453 -56.457000 -119.352900 -30.976960 -1.316315 112.863900 -65.843260 40.268960 -4.562073 -8.459839 15.603880 167.733400 3.325887 167.849100 41.978450 -86.125550 -3.496948 2.052617 1.704996 17.388080 166.256200 -2.087341 162.019100 39.241490 -88.411440 7.112343 6.002519 4.395442 2.193113 171.290300 -7.621857 160.678800 31.479710 -85.617830 12.047190 -0.199310 0.562921 11.369100 179.368000 -13.445220 159.504000 48.977710 -83.530580 0.542235 -5.539795 0.809182 30.053340 
-1.987391 5.249231 5.926905 -112.585300 -15.807040 70.861020 -61.461180 4.834463 -56.351140 -119.352900 -30.976960 -1.294312 112.863900 -65.843260 40.061990 -4.562073 -8.459839 15.554640 167.666300 3.324770 167.715100 41.978430 -86.125550 -3.642822 2.052625 1.705008 17.548690 166.232300 -2.089539 161.974800 39.241130 -88.411190 7.094926 6.002514 4.395449 2.074420 171.290300 -7.621857 160.679100 31.479680 -85.617800 12.047150 -0.199310 0.562928 11.369130 179.367400 -13.445400 159.504300 48.977730 -83.530550 0.542279 -5.539795 0.809164 30.053360 
-1.987603 5.249120 5.927669 -112.530000 -15.780760 70.840120 -61.461180 4.834448 -56.418640 -119.352900 -30.976960 -1.301361 112.863900 -65.843260 40.158260 -4.562103 -8.459839 15.717930 167.585400 3.323430 167.631700 41.978280 -86.125550 -3.766418 2.052623 1.704994 17.832360 166.264700 -2.086548 161.942400 39.241090 -88.411320 7.170147 6.002521 4.395440 1.961473 171.292000 -7.621490 160.678400 31.479970 -85.617680 12.046670 -0.199310 0.562924 11.369090 179.368300 -13.445160 159.504200 48.977710 -83.530580 0.542189 -5.539795 0.809183 30.053340 
-1.987920 5.249578 5.927270 -112.487800 -15.754550 70.866140 -61.461180 4.834461 -56.382480 -119.352900 -30.976960 -1.318085 112.863900 -65.843230 40.060230 -4.562103 -8.459839 15.609820 167.441200 3.321003 167.623600 41.978410 -86.125550 -4.015839 2.052627 1.705001 18.093070 166.217900 -2.090881 161.907100 39.241390 -88.411440 7.062964 6.002525 4.395445 2.004074 171.291200 -7.621643 160.678500 31.479630 -85.617800 12.047070 -0.199310 0.562926 11.369120 179.367300 -13.445430 159.504700 48.977640 -83.530610 0.542401 -5.539795 0.809169 30.053350 
-1.988215 5.250162 5.926459 -112.472100 -15.699980 70.913400 -61.461180 4.834451 -56.353090 -119.352900 -30.976960 -1.313202 112.863900 -65.843260 40.004820 -4.562073 -8.459869 15.550390 167.440800 3.320988 167.617600 41.978230 -86.125550 -4.050568 2.052622 1.704994 18.264580 166.271000 -2.085968 161.905200 39.241120 -88.411440 7.028116 6.002516 4.395449 2.032789 171.292600 -7.621368 160.677800 31.479900 -85.617740 12.046300 -0.199310 0.562922 11.369110 179.366100 -13.445830 159.505100 48.977730 -83.530550 0.542673 -5.539795 0.809177 30.053340 
-1.988025 5.250353 5.926658 -112.439000 -15.694180 70.915790 -61.461150 4.834455 -56.439850 -119.352900 -30.976960 -1.387970 112.863900 -65.843260 40.151470 -4.562103 -8.459869 15.593640 167.332900 3.319170 167.576100 41.978350 -86.125550 -4.225128 2.052632 1.705000 18.406640 166.256200 -2.087341 161.855300 39.241380 -88.411440 6.982566 6.002526 4.395435 1.986850 171.293500 -7.621124 160.677700 31.479880 -85.617800 12.046210 -0.199310 0.562924 11.369110 179.365800 -13.445920 159.505300 48.977690 -83.530550 0.542780 -5.539795 0.809171 30.053340 
-1.987903 5.250744 5.926091 -112.444400 -15.674930 70.947750 -61.461180 4.834475 -56.479830 -119.352900 -30.976930 -1.406982 112.864000 -65.843230 40.164410 -4.562103 -8.459839 15.525930 167.274600 3.318186 167.571600 41.978420 -86.125550 -4.307373 2.052618 1.705009 18.472210 166.261400 -2.086853 161.855600 39.241470 -88.411190 6.973796 6.002518 4.395439 1.973951 171.293400 -7.621155 160.677800 31.479810 -85.617800 12.046240 -0.199310 0.562926 11.369120 179.365700 -13.445950 159.505100 48.977560 -83.530550 0.542961 -5.539795 0.809167 30.053330 
